<svg viewBox="0 0 1000 1000" xmlns="http://www.w3.org/2000/svg"><path d="M546.51 147c-17.87 14.18-43.24 14.95-65.34 9.32s-42.35-16.78-63.75-24.65c-67.26-24.74-147.65-13.94-203 31.65S133.34 289 156.16 356.92c14.76 43.94 46.88 79.6 68.9 120.39 9.56 17.7 17.39 37.5 14.92 57.47-3.24 26.19-23.52 47.16-45.53 61.72s-46.83 24.88-67.38 41.44c-50.77 40.93-65.55 120.17-33 176.64s108.61 83.32 169.44 59.84c35.28-13.62 63.28-40.91 95.34-61 48.73-30.51 118.1-41.58 160.29-2.53 38.32 35.46 39.87 98.18 77 134.9 22.81 22.56 56.75 31.83 88.66 28.53s61.82-18.11 87.09-37.87c20.17-15.76 38.2-35.44 46.9-59.51 13.11-36.27 3.23-77-12.94-112S767.41 697.82 754 661.66s-16.71-79.11 4.4-111.39c21.55-33 62.56-46.89 91.47-73.63a132.4 132.4 0 0 0 40.89-78.37c3.46-25-1-52.13-17-71.71-26.11-32-78-39.56-94.42-77.43-5.75-13.23-6-28.08-8.52-42.28-7.85-44-40-82.81-81.79-98.68s-91.59-8.17-126.66 19.44" fill="#38c190" class="fill-ef6348"></path><path d="M405 537a147.12 147.12 0 0 1-141.22-119.91c-2.8-14.86-3.29-30-3.77-45.15l-1.27-39.83c-.11-3.41-.19-7 1.26-10.06 2-4.35 6.64-6.82 11-8.79a154.78 154.78 0 0 1 72.49-13.17c5.05.31 10.26.93 14.62 3.49 5.68 3.35 9.07 9.51 11.56 15.61 11.06 27.11 11 60.75 33 80.09 14.34 12.62 34.7 15.61 53.8 15.78 1.58 0 1.35-3.13.93-1.6" fill="#ffffff" class="fill-ffffff"></path><path d="M426.61 537a147.14 147.14 0 0 1-141.19-119.91c-2.8-14.86-3.29-30-3.77-45.15l-1.27-39.83c-.11-3.41-.19-7 1.26-10.06 2-4.35 6.64-6.82 11-8.79a154.82 154.82 0 0 1 72.5-13.17c5 .31 10.25.93 14.61 3.49 5.68 3.35 9.07 9.51 11.56 15.61 11.06 27.11 11 60.75 33 80.09 14.34 12.62 34.69 15.61 53.79 15.78 1.58 0 1.35-3.13.93-1.6" fill="#ddede8" class="fill-ddede8"></path><path d="M405 534.54c-38.12-1.89-75-18.87-100.85-47.07a147.37 147.37 0 0 1-28.56-45.64c-7.33-18.84-9.8-38.47-10.64-58.55-.45-10.75-.72-21.5-1.06-32.26q-.25-8-.58-15.93c-.21-5.11-1.1-10.74 3.26-14.41 3.63-3.06 8.79-4.85 13.15-6.54a147.28 147.28 0 0 1 14.64-4.8 150.77 150.77 0 0 1 31.07-5.11c9.29-.53 22.28-1.91 30.63 3 7.37 4.33 10.33 14.33 12.77 22 5 15.54 7.42 31.85 13.5 47 7 17.5 18.89 30.84 36.75 37.59 9.37 3.54 19.48 5 29.43 5.63 3.57.22 9 1.33 11.88-1.38a6 6 0 0 0 .41-8.17c-1.83-1.93-5.84-1.72-7 .9l-.19.42c-2.36 5.2 5.35 9.75 7.73 4.51l.19-.41h-7.73l1.15-4.91-1.6-.06a21.28 21.28 0 0 0-3.21-.1c-2.41-.1-4.83-.25-7.24-.47a92.91 92.91 0 0 1-14.61-2.48c-9.13-2.35-17.74-6.4-24.53-13.05-12-11.78-16.46-28.78-20.49-44.57-2.12-8.32-4.13-16.69-6.89-24.82-2.59-7.62-5.65-15.86-11.61-21.51-6.75-6.41-15.93-7.29-24.8-7.63a160.33 160.33 0 0 0-30.95 2 156.07 156.07 0 0 0-30.64 8.12c-7.39 2.77-17 5.7-21.36 12.83-2.35 3.81-2.69 8.26-2.64 12.63.06 5.93.26 11.86.45 17.78.37 11.42.66 22.84 1.14 34.25.85 20 3.13 39.83 10.16 58.7a151.23 151.23 0 0 0 27.19 46.26c27.8 32.26 69.09 50.71 111.68 51.07 3.11 0 3.08-4.66 0-4.82z" fill="#1a1c3f" class="fill-1a1c3f"></path><path d="M563.43 665.38c.67 63.56 28.34 126.4 74.78 169.8 5.9 5.52 12.16 10.78 19.39 14.37 19 9.45 42.44 6 61.13-4.1s33.54-25.88 47.6-41.78c15.55-17.59 30.68-35.76 42.14-56.25 2.56-4.59 5.21-9.56 9.87-12 7.26-3.77 16.17.11 24.22-1.3C853 732.3 860 721.58 860.8 711.06s-3.18-20.79-7.69-30.34a262.43 262.43 0 0 0-18.29-32.5c-9-13.62-20.47-27.21-36.34-31-22.49-5.43-44.07 10.34-61.86 25.13 1.88-12.32 3.77-24.82 2.34-37.21s-6.61-24.85-16.48-32.46" fill="#ffffff" class="fill-ffffff"></path><path d="M579 664.43c.66 63.57 28.33 126.41 74.78 169.81 5.89 5.51 12.15 10.77 19.38 14.37 19 9.45 42.44 5.95 61.14-4.1s33.54-25.88 47.6-41.79c15.5-17.58 30.64-35.72 42.1-56.24 2.57-4.59 5.21-9.56 9.88-12 7.26-3.77 16.17.12 24.22-1.3 10.39-1.83 17.41-12.55 18.23-23.07s-3.18-20.8-7.69-30.34a261.15 261.15 0 0 0-18.29-32.5c-9-13.63-20.47-27.21-36.34-31-22.48-5.43-44.07 10.33-61.85 25.13 1.88-12.32 3.76-24.83 2.33-37.21S747.88 579.3 738 571.7" fill="#ddede8" class="fill-ddede8"></path><g fill="#1a1c3f" class="fill-1a1c3f"><path d="M724.47 601.48a576.54 576.54 0 0 1-131.81 152.13c-1.55 1.25-3.52 2.57-5.38 1.86-1.52-.59-2.23-2.29-2.79-3.82L575 725.51c-2.69-7.42-5.43-15.06-5.2-23 .38-13 8.67-24.39 17.71-33.73a163.47 163.47 0 0 1 49.63-35"></path><path d="M722.93 600.58a634.39 634.39 0 0 1-83.24 105.64q-11.69 11.93-24.12 23.15-6 5.48-12.23 10.77-2.94 2.5-5.9 5c-1.43 1.19-5.87 6.18-7.82 6.33-3 .23-6.09-13.12-7-15.7-2.28-6.31-4.75-12.58-6.73-19-3.72-12-2.47-22.77 4.46-33.35 6.78-10.34 16.51-19.12 26.21-26.69 10.15-7.92 21.47-13.24 32.28-20 3.07-1.93 1.15-7.19-2.55-6-11.9 3.73-23.11 11.63-32.93 19.15-9.53 7.31-18.64 15.55-26 25.09-6.9 9-12 19.72-11.13 31.3 1 13.37 7.49 26.51 12.06 39 1.49 4.06 2.74 11.3 7.19 13.42 4.75 2.26 8.95-1.79 12.36-4.61q14.86-12.29 28.89-25.55a566.4 566.4 0 0 0 51.79-56A519 519 0 0 0 726 602.38a1.78 1.78 0 0 0-3.07-1.8z"></path><path d="M561.46 665.38c-.89 44.25 12.43 88.72 35.8 126.18 11.77 18.88 26.22 36.71 43.1 51.26 8.68 7.48 18.43 13.39 29.81 15.58a71.5 71.5 0 0 0 33-1.84C726 850.05 744.33 834 760.12 817c16.8-18.13 33.12-37.26 46.34-58.19 3-4.68 5.41-9.7 8.48-14.3 4.07-6.11 9.09-6.93 16-6.36 10.55.86 19.74 0 26.87-8.72 15.53-18.94 3-44.16-6.84-62.55-10.92-20.5-25.37-46.11-49.14-53.38-25.72-7.87-49.8 10.22-68.44 25.65l7.54 4.39c3.85-25.19 7-56.07-15.28-74.09-4.52-3.65-11 2.76-6.43 6.44 19.65 15.83 16.37 43.12 13 65.25-.69 4.51 3.92 7.41 7.54 4.4 15.45-12.82 35.91-29.19 57.48-24 20.35 4.89 32.89 26.42 42.54 43.24 9.12 15.89 26.7 44 10.23 60.72-7.81 7.91-18.11 3-27.73 4.48-9.92 1.54-14.19 9.87-18.74 17.77-11.4 19.78-26.25 37.26-41.42 54.22-14.48 16.19-30 32.68-50.07 41.89-19.79 9.09-43 9.7-61.14-3.41-16.72-12.1-31-29.18-42.62-46.06-26.28-38.08-40.72-82.84-42.93-129a2 2 0 0 0-3.95 0z"></path></g><path d="M403.4 605.31c-24.7-1.66-49.64-3-74.11.7s-48.73 13-66.61 30.11c-19.86 19-30.29 46.36-33 73.72s1.61 55 7.72 81.77c2.66 11.66 5.41 24.83-1.16 34.82-2.75 4.17-7 7.52-8.29 12.35-2.34 8.84 6.38 16.59 14.63 20.55 20.16 9.66 43 11.56 65.33 13.31 15 1.18 30.86 2.22 44.47-4.25 13.85-6.59 23.32-20.22 28.28-34.72s6-30 7-45.33c.7-10.77 1.38-21.62-.06-32.31 35.85 1.71 76 2 102.2-22.55 14.25-13.3 22.06-32.13 27-51" fill="#ffffff" class="fill-ffffff"></path><path d="M418.8 623.66c-24.7-1.65-49.64-3-74.11.7s-48.73 13-66.6 30.12c-19.87 19-30.3 46.35-33 73.72s1.61 54.95 7.72 81.76c2.66 11.66 5.41 24.83-1.16 34.82-2.75 4.17-7 7.52-8.29 12.35C241 866 249.7 873.72 258 877.68c20.16 9.67 43 11.57 65.33 13.32 15 1.18 30.86 2.22 44.47-4.26 13.8-6.58 23.27-20.21 28.2-34.74s6-30 7-45.32c.69-10.77 1.37-21.63-.07-32.32 35.85 1.71 76 2 102.2-22.54 14.25-13.31 22.06-32.13 27-51" fill="#ddede8" class="fill-ddede8"></path><g fill="#1a1c3f" class="fill-1a1c3f"><path d="M377.92 645.45A203.93 203.93 0 0 0 446.24 742c2.89 2.24 6.09 4.49 9.74 4.6s6.89-1.88 9.88-3.89c13.48-9.06 25.91-20.22 34-34.28s11.6-31.32 6.9-46.87c-3.88-12.84-12.91-23.56-23.06-32.33-12.32-10.64-27.57-19.24-43.84-18.8"></path><path d="M375.93 646c2 11 7.29 22 12.4 31.94a206.06 206.06 0 0 0 17.67 28.5 210.9 210.9 0 0 0 22.14 25.44q6 5.85 12.5 11.19c4.09 3.36 8.34 7.09 13.78 7.78 10.14 1.28 20.44-8.73 27.58-14.79 8.91-7.57 17-16.54 22.57-26.85 11.23-20.58 12.34-45.26-1-65.11s-38.38-39.54-63.65-37.73c-5.18.37-5.23 7.8 0 8.09 20.28 1.12 38.56 13.87 51.36 28.95 14.18 16.71 16.65 38.56 7.15 58.29a82.33 82.33 0 0 1-17.84 23.71 119.76 119.76 0 0 1-11.59 9.71c-3.69 2.71-9 7.73-13.89 6.82-4.37-.81-8.72-5.27-12-8q-5.89-4.82-11.4-10.07a199.28 199.28 0 0 1-37.75-49.19c-5.37-9.83-9.17-20.31-14.19-30.27-1.11-2.21-4.15-.58-3.76 1.58z"></path><path d="M403.4 603.45c-43.14-5.21-92.25-6.27-129.88 19-35 23.55-49 65.79-48.65 106.47.22 23.52 5.15 46.2 9.78 69.14 2.06 10.2 2.92 20.52-4.17 28.95-5.81 6.9-10 14.39-5.15 23.22 4.47 8.18 13.36 12.65 21.62 16a137 137 0 0 0 31.44 8.1c10.93 1.63 22 2.59 33 3.4 10.83.8 21.89 1.2 32.54-1.32C365 871.47 379 854 385.36 834c3.86-12 5.16-24.84 6.08-37.4 1-13.49 2.16-27.12.5-40.59l-4.4 4.39c27.85 1.35 57.46 2.09 83.46-9.4 28.07-12.39 42.46-38.84 50.06-67.31 1.48-5.57-7.15-8-8.63-2.38-7.18 26.9-20.55 51.75-47.58 62.67-24.31 9.81-51.63 8.84-77.32 7.65-2.17-.1-4.68 2.11-4.4 4.4 1.34 10.76.76 21.53.07 32.31-.68 10.63-1.32 21.3-3.57 31.74-3.7 17.14-12.11 35-28.42 43.45-17.48 9-40.5 4.76-59.23 2.94a185.4 185.4 0 0 1-30.08-5c-8.9-2.37-19.3-5.4-25.94-12.15-3-3-5.06-6.87-3.22-11s5.63-7.14 7.82-11.05c4.13-7.36 4.26-16 3.13-24.13-1.38-9.91-4.15-19.61-6-29.43a270.78 270.78 0 0 1-4.45-33.19c-2.51-38.08 6.11-79.68 36.52-105.4 37.18-31.45 88.13-28.43 133.67-27.86 2.45 0 2.31-3.44 0-3.72z"></path></g><path d="M426.48 453.51c-15.27 3.52-23.35 19.92-28.62 34.67a524.37 524.37 0 0 0-25.18 103c-1.93 13.59-3.34 27.54-.43 41s10.82 26.4 23.23 32.28c6.51 3.08 13.87 4.07 20.33 7.26 14.93 7.38 22.76 25.26 38.08 31.83 6.91 3 14.63 3.28 22.16 3.42a677 677 0 0 0 101.52-5.73c3.57-.47 7.25-1 10.27-3 3.73-2.38 5.9-6.48 8.55-10 8.9-11.88 23.49-17.7 37-23.91a328.48 328.48 0 0 0 76-48.68c8.46-7.25 16.66-15 22.49-24.55 13.61-22.23 12.26-51.11 2.77-75.39s-26.16-45-42.63-65.16c-6.38-7.82-16.43-16.46-25.22-11.51" fill="#ffffff" class="fill-ffffff"></path><path d="M456.4 468.81c-14.27 3.29-21.83 18.62-26.75 32.41a490.54 490.54 0 0 0-23.54 96.29c-1.79 12.71-3.11 25.75-.39 38.3s10.1 24.67 21.7 30.16c6.09 2.88 13 3.81 19 6.79 14 6.9 21.28 23.61 35.59 29.75 6.46 2.77 13.68 3.06 20.71 3.2a633.89 633.89 0 0 0 94.9-5.36c3.33-.44 6.77-1 9.6-2.76 3.48-2.22 5.51-6.05 8-9.35 8.32-11.11 22-16.54 34.56-22.35a307.1 307.1 0 0 0 71-45.5c7.91-6.77 15.58-14.06 21-22.95 12.73-20.77 11.46-47.77 2.59-70.47s-24.45-42-39.85-60.9c-6-7.31-15.35-15.38-23.57-10.76" fill="#ddede8" class="fill-ddede8"></path><g fill="#1a1c3f" class="fill-1a1c3f"><path d="M669 524.87c1.89 9.25 10.56 15.28 18.52 20.34l40.68 25.86c1.92 1.21 4.62 2.37 6.22.77a5 5 0 0 0 1.11-3 193 193 0 0 0-2.5-66.45c-.38-1.81-2.41-4.07-3.53-2.59"></path><path d="M667.1 525.39c2.73 13.55 16.43 20.72 26.95 27.75l22.46 15c4.76 3.18 13.1 11.13 19.38 7.44 5.39-3.16 4.54-13.87 4.92-19.08a192 192 0 0 0 .09-26.71 201.84 201.84 0 0 0-3.36-25.68c-.57-2.91-1.24-6-4-7.74a4.79 4.79 0 0 0-6.55.95c-2.14 2.72-.21 6.59 3.41 5.85l.84-.17-2.93-.39c1.78 1.06 1.91 6.58 2.22 8.36.59 3.41 1.09 6.83 1.48 10.26a189.53 189.53 0 0 1 1.21 19q.13 9.06-.59 18.12c-.19 2.4.11 7.37-1 9.5-.48.93 1.13 1.47-1.43-.28-1.33-.91-2.72-1.73-4.08-2.58-10.64-6.6-21.44-12.95-32.16-19.42-8.78-5.3-20-10.68-23.06-21.3-.71-2.46-4.31-1.42-3.81 1z"></path><path d="M425.94 451.57c-24.61 4.87-32.23 37.08-38.66 57.27a483.07 483.07 0 0 0-19.85 91.68c-2.77 24.49.72 55.62 25.84 67.71 5.87 2.83 12.33 3.93 18.33 6.4s10.73 6.71 15.16 11.3c7.89 8.17 15.11 17.49 25.93 21.94 13.12 5.38 29.07 3.84 42.93 3.72q24.47-.21 48.87-2.19 11.71-.95 23.37-2.3c6.78-.79 14.82-.82 21-4 5.45-2.84 8.09-8.07 11.77-12.69 4.2-5.28 9.73-9.21 15.55-12.51 11.44-6.48 23.84-11.16 35.47-17.3a328.35 328.35 0 0 0 37.73-23.29c22-15.72 46.3-33.94 54.13-61.07 8.52-29.49-1-60.63-16.38-86.06-8.33-13.77-18.35-26.42-28.47-38.9-8-9.89-20.13-23.62-34.09-15.93-4.2 2.31-1.28 9.91 3.36 8 11.68-4.91 22.35 12.66 28.35 20.16A296.26 296.26 0 0 1 718.9 495c13 21.49 21.9 47.13 17 72.47-5.12 26.28-26.48 43.4-46.93 58.55-20.73 15.36-43 27.35-66.38 38.2-10.5 4.78-21.16 10.44-28.59 19.53-3.28 4-5.63 9.61-10.74 11.54-6.44 2.45-14.43 2.41-21.25 3.16a650.81 650.81 0 0 1-87.72 3.95c-6.57-.16-13.36-.5-19.42-3.31-4.68-2.17-8.58-5.6-12.2-9.22-7.45-7.45-14-16.21-23.42-21.33-10.44-5.66-22.59-5.92-31.26-14.82-8.46-8.69-12.27-20.76-13.08-32.63-1.09-15.85 1.82-32 4.49-47.58s6-31.06 10.06-46.35c3.92-14.8 8.08-29.79 13.73-44 4.53-11.44 11.38-23.68 23.8-27.67a2 2 0 0 0-1.07-3.89z"></path></g><path d="M602.75 423.15c-7.39 5.23-16.52 7.23-25.41 8.88a514.33 514.33 0 0 1-94.14 8.64c-12.66 0-25.41-.48-37.76-3.26-5.7-1.29-11.47-3.15-15.84-7-5.16-4.55-7.76-11.32-9.49-18-20.48-78.69 43-160.19 118.82-176.53 47.33-10.2 112.57 2.65 132.22 53.13 10.69 27.47 2.89 58.34-5.89 86.47a77.05 77.05 0 0 1-5.34 13.84c-8.89 16.47-27.76 24.41-45.22 31.16" fill="#ffffff" class="fill-ffffff"></path><path d="M620.09 426.16c-7.39 5.23-16.52 7.23-25.41 8.88a515.21 515.21 0 0 1-94.14 8.64c-12.66 0-25.41-.49-37.77-3.27-5.69-1.28-11.46-3.15-15.83-7-5.16-4.55-7.76-11.32-9.49-18-20.48-78.69 43-160.19 118.82-176.53 47.33-10.2 112.57 2.65 132.22 53.12 10.69 27.47 2.89 58.34-5.89 86.48a76.67 76.67 0 0 1-5.34 13.83c-8.89 16.48-27.76 24.42-45.22 31.17" fill="#5948df" class="fill-34c6a0"></path><path d="M488.41 406.7a305.32 305.32 0 0 0-52.22 11.05c-11.59 3.54-23.89 8.51-29.95 19-8.81 15.26.37 35.89 15.24 45.34s33.43 10.5 51 10.54c55 .15 110.45-6.83 161.87-26.24 20.79-7.85 43.25-20.65 47.49-42.47 4-20.43-14.84-42.76-35.48-40.1-15.76 2-30.4 16.16-45.4 10.93" fill="#ffffff" class="fill-ffffff"></path><path d="M502.5 415a304.28 304.28 0 0 0-52.23 11c-11.59 3.53-23.89 8.5-29.95 19-8.8 15.26.37 35.89 15.24 45.34s33.43 10.49 51.05 10.54c55 .15 110.45-6.83 161.88-26.24 20.79-7.84 43.25-20.64 47.51-42.46 4-20.43-14.84-42.76-35.49-40.1-15.75 2-30.39 16.16-45.4 10.93" fill="#ddede8" class="fill-ddede8"></path><path d="M674.57 395.07c-6.79-8.62-17.22-14.23-28.16-12.83-15.76 2-30.4 16.16-45.4 10.93l-112.6 11.95a306 306 0 0 0-50.47 10.53c1.73 6.06 4.3 12 9 16.18 4.37 3.86 10.14 5.72 15.83 7 12.36 2.78 25.11 3.26 37.77 3.26a514.33 514.33 0 0 0 94.14-8.64c8.89-1.65 18-3.65 25.41-8.87l11.91-2.67c15.9-6.13 32.92-13.24 42.57-26.84z" fill="#f05d5e" class="fill-4747e2"></path><path d="M488.41 404.88c-20.83 2.29-42.41 5.62-62.09 13.12-14.58 5.51-27.37 16.44-26.74 33.28.6 16.09 11.78 30.15 25.93 36.95 17.37 8.34 37.45 8.12 56.29 7.94 42.93-.4 86-5.17 127.32-17.16 18-5.23 37-11.14 52.62-21.73 13-8.79 24.54-22.16 24.68-38.66.14-16.79-12.17-33.47-28.46-37.84-9.22-2.47-18.05 0-26.58 3.61-9.23 4-19.07 10-29.41 6.93-4.47-1.35-6.34 5.56-1.92 7 15.4 4.89 28.71-6.11 43-9.73 14.9-3.77 29.14 6.53 33.82 20.57 4.87 14.61-3.1 28.44-14.25 37.59-12.67 10.4-28.76 16.08-44.12 21.14-36.35 12-74.46 18.14-112.61 20.38-18.14 1.06-36.9 2.05-55-.05-16.26-1.9-32.69-8.13-40.82-23.24-3.84-7.13-5.52-16-2.45-23.68 3.29-8.32 11.17-13.33 19-16.85 9.11-4.09 19-6.66 28.66-9.17a293.73 293.73 0 0 1 33.62-6.75c2-.28 1.56-3.8-.49-3.57z" fill="#1a1c3f" class="fill-1a1c3f"></path><path d="M492.62 436.56C491.28 410.45 496 384.78 499 359c.58-5.05-4-10.92-.27-14.37 2.05-1.88 5.13-1.94 7.72-3a18.93 18.93 0 0 0 6.15-4.63c10.75-10.9 19.74-25.46 34.63-29 10.21-2.47 20.87 1 30.51 5.13 8.71 3.76 17.54 8.5 22.66 16.48 6.76 10.54 5.47 24.51.88 36.17s-12.07 21.93-17.58 33.18a106.69 106.69 0 0 0-9.91 32.77" fill="#ffffff" class="fill-ffffff"></path><path d="M501.87 442.6c-1.35-26.11 3.38-51.77 6.35-77.6.59-5.06-4-10.93-.26-14.37 2-1.89 5.13-1.94 7.71-3a18.69 18.69 0 0 0 6.17-4.59c10.76-10.9 19.75-25.45 34.63-29.05 10.21-2.47 20.88 1 30.52 5.14 8.7 3.76 17.54 8.49 22.66 16.47 6.76 10.55 5.47 24.52.88 36.17s-12.08 21.97-17.59 33.23a107.1 107.1 0 0 0-9.94 32.75" fill="#f7cebf" class="fill-f7cebf"></path><path d="M542.89 304.11c-.23 8.66 6 15.91 10.65 23.23s7.64 17.7 1.74 24a10.91 10.91 0 0 1 19.11-2.4 12.58 12.58 0 0 1 .28 13.24 16.8 16.8 0 0 1-11.18 7.69 3.61 3.61 0 0 0-2.22 1 3.32 3.32 0 0 0-.5 1.78l-2.58 30.51a4.89 4.89 0 0 0 .41 3.08 4.39 4.39 0 0 0 2.85 1.6c5.33 1.21 10.9.12 16.23-1.14 20.85-4.92 41.75-12.85 57-27.94 1.37-1.37 2.76-2.92 3-4.84a9.5 9.5 0 0 0-1.06-4.86l-14.48-35.17c-2.35-5.7-4.77-11.52-8.85-16.14-7.62-8.63-19.7-11.67-31.13-13s-23.27-1.36-33.89-5.78c-7.66-3.18-15.25-8.68-23.38-7.06s-13.18 9.92-13.87 18 2.09 16.06 4.84 23.72a40.83 40.83 0 0 1 24.57-21.88" fill="#38c190" class="fill-ef6348"></path><g fill="#1a1c3f" class="fill-1a1c3f"><path d="M494.56 436.56c-.44-23.81 3.76-47.4 6.92-70.92.56-4.2 1.24-8 .31-12.15-.39-1.78-1.49-4-.64-5.73 1-2.06 4.55-2.08 6.63-2.94C515.47 341.66 521 333 526.36 327c5.69-6.3 12-12.8 20.44-15.26 10.76-3.16 22.31 1.22 32 5.73 9.12 4.23 18.1 9.94 21.29 20 3 9.32.82 19.67-2.88 28.45-4.69 11.15-11.91 21-17.15 31.89-5 10.46-9.14 22.16-9.8 33.83-.23 3.92 6 4.77 6.87.93 2.87-12.54 5.69-24.33 11.79-35.8 5.57-10.48 12.36-20.36 16.41-31.58 3.36-9.31 4.74-20.05 1.76-29.65s-10.29-16.6-19-21.44c-9.49-5.3-20.57-9.84-31.5-10.51-10.08-.62-19 3.31-26.61 9.71s-12.98 14.39-19.87 21.24a16.3 16.3 0 0 1-7.31 4.5c-2.1.63-4.1 1.11-5.85 2.52-2.95 2.36-3.56 5.7-2.89 9.28.51 2.77 1.59 5.25 1.55 8.11a106.12 106.12 0 0 1-1.21 10.65c-.87 7.41-1.81 14.82-2.61 22.24a248.41 248.41 0 0 0-1.1 44.72c.17 2.46 3.92 2.52 3.87 0z"></path><path d="M601.63 421.25c-11.93 7.09-27.11 7.75-40.53 9.75-14.94 2.21-30 3.71-45.08 4.57-14.7.84-29.51 1.19-44.23.56a141.18 141.18 0 0 1-22.36-2.5c-6.25-1.28-13.08-2.9-17.75-7.54-7.9-7.85-9.74-22.76-10.78-33.36a118.37 118.37 0 0 1 1.25-32.28c3.78-21.31 12.81-41.34 25.43-58.85 24.85-34.47 64.12-59.75 106.76-64.11 36.69-3.76 81.51 5 104.13 37 17.49 24.7 14.83 54.84 7.45 82.67-3.76 14.19-6.67 30.28-17.56 40.89-9.55 9.3-22.29 14.6-34.5 19.43-3.7 1.47-2.14 7.52 1.68 6.07 11.57-4.38 23.5-8.9 33.5-16.36C660.21 398.82 665.8 388 670.1 375c9-27.39 16.16-59.24 5.22-87.12-16.17-41.21-61.45-58.69-103-59.25C526 228 482 249.47 451.56 284.14c-31 35.33-48.33 85.28-35.07 131.75 3.9 13.65 12.28 22.2 26.18 25.55 15.41 3.71 31.54 3.75 47.29 3.44 31.78-.62 64.94-3.07 95.74-11.33a52.34 52.34 0 0 0 18.17-8.49c2.2-1.66.28-5.31-2.24-3.81z"></path><path d="m526.6 340 .1-.05-.93.26c-1.2.09-1.49-.85-1.39-1.59-.06.45.16-.42 0 0s.21-.19 0-.07c-.4.31.24-.1 0 0-.41.18 0 0 .13 0l-.2.05h.31a4.88 4.88 0 0 0-1.39.34 2.72 2.72 0 0 0-.67.5 2.36 2.36 0 0 0 0 3.29c2 2.07 5-.11 5.67-2.3a3.16 3.16 0 0 0-.62-3.08 2.23 2.23 0 0 0-3.29-.12 1.86 1.86 0 0 0-.14 2.39 1.83 1.83 0 0 0 2.35.46zM529.24 329.5a5.34 5.34 0 0 1 2.43.48 7.29 7.29 0 0 1 2 1.87 2.38 2.38 0 0 0 4-2.31c-1.1-3.52-5.61-5.26-8.93-4.07-2.07.73-1.91 4.13.54 4zM510 367.61a17.67 17.67 0 0 0 14.71-3 2.36 2.36 0 1 0-2.86-3.72 14.26 14.26 0 0 1-10.82 3c-2.4-.34-3.53 3.17-1 3.74zM558.13 349.69c2.28-3.17 7.11-2.87 10.08-1.12a8.19 8.19 0 0 1 4.06 7.79c-.32 5.18-6 9.57-10.57 11-2.49.79-3 5.15 0 5.62 10.32 1.59 19.83-12.47 16.45-21.79-3.26-9-18.1-13.28-22.89-3.18a1.66 1.66 0 0 0 2.87 1.68z"></path><path d="M564.82 354.23c-.88-1.12-2.46-.46-3.46 0a9.05 9.05 0 0 0-2.13 1.56 2.21 2.21 0 1 0 3.48 2.68c-.29.39 0 0 .11-.13s.25-.27.38-.39a4.59 4.59 0 0 1 .41-.36c-.33.26.14-.09.18-.11a3.34 3.34 0 0 0 1.28-1.08 1.94 1.94 0 0 0-.25-2.22zM558.45 407.15c4.7 4.72 11.89 2.66 17.78 1.81a88.19 88.19 0 0 0 25-7.43c8.1-3.79 16.13-7.83 23.91-12.24 4.68-2.65 16.15-7.37 14.05-14.28-1.21-4-7.61-2.18-6.22 1.71.57 1.62-14.3 9.93-16.08 10.92-5.74 3.18-11.64 6.11-17.54 9a84.42 84.42 0 0 1-19.25 6.54c-5.26 1.13-14.75 4.46-19.64 1.39a1.67 1.67 0 0 0-2 2.62zM726.68 686.13c3.8-8.44 7.83-16.74 10-25.81 2.05-8.72 4.53-18.71 3.89-27.71-.26-3.69-5.87-4.94-6.79-.92-2 8.74-2.31 17.85-4.32 26.64s-3.56 17.71-6.51 26.22c-.75 2.17 2.79 3.72 3.76 1.58zM377.47 722.31c1.61 8.19 2.85 16.25 3.86 24.55.48 3.92 1 7.82 1.61 11.72.67 4.12.88 8.49 2.92 12.18 1.34 2.42 5.63 2.09 6.18-.81.76-3.94-.18-7.72-.8-11.65-.75-4.82-1.64-9.6-2.58-14.4-1.51-7.68-2.65-16.68-7.29-23.23a2.14 2.14 0 0 0-3.9 1.64zM337 313.35a125.13 125.13 0 0 1-56.19 11.8c-3.06-.08-6.31-.33-8.81-2.11a16.65 16.65 0 0 1-4-4.65c-10.66-16.19-21.65-33.31-23.11-52.63-.29-3.72-.17-7.6 1.49-10.93s5.22-6 8.92-5.51c4.89.59 7.7 5.79 9.29 10.46s3.21 10 7.64 12.16a56.43 56.43 0 0 1-4.39-20.33c-.18-6.55 2.19-14.68 8.66-15.74 5.81-1 10.61 4.68 12.67 10.19s2.92 11.77 6.95 16.05c-1.82-6.75-1.91-14.28 1.43-20.42S308.23 231.31 315 233s11.34 9.61 9.4 16.35a4.84 4.84 0 0 1-1.42 2.48c-2.68 2.19-7.87-.95-9.72 2a4.77 4.77 0 0 0-.52 2.54c0 3.66.43 7.53 2.63 10.44s6.64 4.4 9.65 2.32c3.33-2.3 3.31-7.38 6.07-10.34 3.08-3.32 8.87-2.74 12.27.25s4.82 7.65 5.35 12.15c1.7 14.51-4.34 28.85-12 41.28"></path></g><path d="M654.14 512.53c-8.84-7.79-13.26-19.74-13.78-31.51s2.52-23.43 6.66-34.46c3.69-9.81 8.35-19.41 15.24-27.32 24.65-28.3 72.62-35.11 108.12-35.62 46.31-.67 80.44 21.34 105.83 58.69 9.7 14.27 17.86 30.53 17.71 47.78-.19 21.67-14.68 42.28-34.66 50.67s-44.29 4.62-61.39-8.68c-11.26-8.75-21.14-21.9-35.39-22.42-9.38-.35-17.83 5.07-26.29 9.13a98.14 98.14 0 0 1-63.77 7.06" fill="#ffffff" class="fill-ffffff"></path><path d="M808.72 534.5c5.55 3.61 8 10.49 8.54 17s-.45 13.11-.06 19.66a46.4 46.4 0 0 0 4.37 17.05c1.76 3.72 4.14 7.34 7.73 9.42s8.6 2.18 11.62-.64c4.06-3.8 2.93-10.68 6.22-15.13 3.93-5.29 12.62-4.7 17.86-.68s8 10.33 11 16.19a12.83 12.83 0 0 0 3.84 5.1c3.49 2.36 8.65.82 11.25-2.48s3.1-7.78 2.71-11.94a33.21 33.21 0 0 0-4.74-14.14 27.21 27.21 0 0 0 9.39 12.89c1.57 1.18 3.42 2.22 5.37 2.06 2.92-.24 4.94-3.06 5.73-5.84 2.11-7.49-1.76-15.22-5.5-22.06 4.78-.48 5.74 7.22 10.09 9.26 3.42 1.6 7.48-1.14 9.16-4.48 2.41-4.79 1.73-10.66-.7-15.43s-6.41-8.6-10.6-12a98.75 98.75 0 0 0-47.34-20.67" fill="#1a1c3f" class="fill-1a1c3f"></path><path d="M671.23 520.79C662.4 513 658 501 657.45 489.28s2.52-23.44 6.67-34.46c3.69-9.82 8.35-19.42 15.23-27.32C704 399.19 752 392.39 787.48 391.88c46.3-.67 80.43 21.33 105.82 58.69 9.7 14.27 17.87 30.52 17.71 47.78-.19 21.66-14.68 42.28-34.65 50.67s-44.29 4.62-61.4-8.68c-11.25-8.76-21.13-21.9-35.38-22.43-9.38-.35-17.83 5.08-26.3 9.13a98 98 0 0 1-63.76 7.06" fill="#ddede8" class="fill-ddede8"></path><g fill="#1a1c3f" class="fill-1a1c3f"><path d="M655.34 511.33c-18.63-18.89-12.5-47.9-2.78-69.56 8.76-19.52 23.51-32.87 43.14-41 17.69-7.33 37-10.65 56.06-11.93 19.27-1.31 38.62-.9 57.13 5.15 17.45 5.71 32.86 16.12 45.62 29.21 14.71 15.08 28.86 34.55 33.32 55.46 4.34 20.38-4.82 41.65-22.15 53.12-17.58 11.64-41 11-59 .49-9.8-5.75-17-14.82-26.43-21.14-9.18-6.16-19.73-7.88-30.21-4-6.17 2.27-11.78 5.7-17.73 8.46a91.25 91.25 0 0 1-18.41 6.19 94.46 94.46 0 0 1-40.41.18c-5.07-1.08-7.25 6.63-2.15 7.8 25.47 5.83 50 1.44 73.16-10 5.55-2.73 11.61-5.7 18-5.38 5.25.27 9.93 2.76 14.12 5.78 9.24 6.65 16.51 15.56 26.58 21.16 19.4 10.79 44.09 11.92 63.74 1.11 18.7-10.29 31.73-30.89 31.93-52.37.23-24.5-14.63-47.25-29.83-65.33-12.93-15.39-29-28.28-47.51-36.22-19.69-8.44-40.37-10.32-61.58-9.05-20.87 1.26-42.09 4.37-61.71 11.86-23.47 8.95-41.81 23.9-51.67 47.41-9.95 23.74-16.07 56.14 6.38 75 1.66 1.39 4-.83 2.41-2.41zM263.7 359.84c22.26 2.4 45.5 4.88 67.37-1.41A81 81 0 0 0 356 346.65c4.77-3.45 15.78-10.89 14.21-17.79-.68-3-5.7-2.4-5.42.73s-6.52 8.1-8.59 9.83a64.27 64.27 0 0 1-10.83 7.27 85.69 85.69 0 0 1-22.56 8.1c-19.43 4.25-39.45 2.86-59.13 1.57-2.26-.15-2.18 3.25 0 3.48zM266.26 412.12c43.05 4.66 91.42-5.43 116-44.54 1.92-3.06-2.93-5.88-4.83-2.83-23.39 37.57-70.05 46.33-111.12 43.73-2.37-.15-2.28 3.39 0 3.64zM285.6 460.93c23.85 5.82 47.76-5.49 68.25-16.72 19.21-10.52 37.43-24.16 47.87-43.89 1.75-3.31-3.31-6.27-5-2.94-9.59 18.55-26.29 31.4-44.11 41.54C333 450 309.77 462.27 286.63 457.2c-2.43-.53-3.47 3.14-1 3.73zM322.88 511.17c16.58 5 33.55-8.43 46.6-16.93 12.87-8.37 28-17.85 34.15-32.62 1.09-2.61-3.23-4.37-4.54-1.92-7.12 13.35-19 21.47-31.29 29.78s-28.22 21.62-44 18.41a1.7 1.7 0 0 0-.9 3.28zM401.52 476.43a282.79 282.79 0 0 1-40.92 48.88 67.73 67.73 0 0 0 15.4 5.16 2.18 2.18 0 0 0 1.36 0 2.21 2.21 0 0 0 .9-1.15L395 493.49"></path><path d="M399.64 475.34A310.21 310.21 0 0 1 358.26 523c-1.44 1.36-1.24 4.29.67 5.19 5 2.35 10.62 4.85 16.2 5.53 4.42.54 5.59-1.75 7.27-5.41l7.88-17c2.55-5.53 5.81-11.13 7.48-17 .91-3.2-3.43-4.76-5.18-2.18-5.05 7.41-8.26 16.73-12.11 24.84l-2.53 5.36-1.69 3.57q-.71 3.09-1.11 1c-1.41.21-3.95-1.06-5.23-1.47a72 72 0 0 1-7.64-2.92l.67 5.19a273 273 0 0 0 40.45-50.12c1.51-2.39-2.17-4.45-3.75-2.19zM674.56 408.73a109.08 109.08 0 0 0 9.33 97.94c5.78 9.07 13 18.92 23.23 23.05 3.3 1.32 4.72-4 1.47-5.32-9.91-4-17.13-15.53-22.25-24.43a109.7 109.7 0 0 1-8.42-90.32c.76-2.14-2.55-3-3.36-.92zM722.54 386.82c-14.12 18.11-11.57 41.69-6.38 62.64 5.56 22.49 12.62 43.55 28.08 61.27 2.34 2.67 6.23-1.24 3.9-3.9-14.27-16.31-20.52-35.46-26-56s-9.39-43.1 3.29-61.78c1.15-1.68-1.58-3.84-2.86-2.2zM783 381.21c-18.5 13.68-23.87 36.42-24.72 58.29a320.73 320.73 0 0 0 .63 38.35c1 11.94 2.71 24.59 7.79 35.55 1.18 2.56 5.38.75 4.54-1.91-3.52-11.16-6.25-21.92-7.24-33.64a339.67 339.67 0 0 1-.85-34.66c.42-21.43 4.26-45 22.11-59.06 1.64-1.29-.56-4.17-2.26-2.92zM784.47 509a176.8 176.8 0 0 1 22.22-51.46c10-15.69 22.51-30.51 39-39.59 3.29-1.8.35-6.84-2.94-5-16.77 9.22-29.34 24.76-39.35 40.75a172.88 172.88 0 0 0-22.17 54.44c-.46 2.09 2.68 3 3.21.89zM806.36 533.76c12.69-12.36 22.6-27.21 34.84-40 12-12.49 25.12-21.28 41.76-26.1 3.76-1.09 2.15-6.42-1.59-5.77-16.16 2.77-30.54 14.34-41.56 25.85-13 13.59-23.71 29.27-35.86 43.61-1.4 1.65.81 4 2.41 2.41zM856.46 540.53c3.1-1.63 6.2-3.24 9.23-5 2.38-1.4 4.87-2.44 5.84-5.18.87-2.45-3-4-4.18-1.76-1.07 2-4.32 3.21-6.17 4.42-2.2 1.44-4.33 3-6.48 4.51a1.74 1.74 0 0 0 1.76 3zM627.17 816.15c-7-5.58 6.28-10.62 10-12q8.61-3.25 17.42-6a279.4 279.4 0 0 1 34.93-8.46c5.73-1 12.17-2.66 18-2.46 6.14.22 9.38 7.31 12.55 11.94 6.81 10 10.55 20.48 15.11 31.51a3.31 3.31 0 0 0 6.37-1.76c-1.25-7.48-4.64-15-7.91-21.81A112.45 112.45 0 0 0 722.29 788c-4.13-5.49-7.88-9.7-15.31-8.88a217.86 217.86 0 0 0-23.9 4.53 300.55 300.55 0 0 0-47.45 14.91c-5 2-11.49 4.22-13.81 9.58a8.37 8.37 0 0 0 3.24 10.76c1.65.93 3.7-1.47 2.11-2.74zM275.05 628.93c2.1-.2 4.84 4.5 5.94 5.79l6.22 7.3c3.37 4 6.68 9 11.44 11.46s10.14.89 14.93-.08a132.89 132.89 0 0 0 18.92-5.25c4.33-1.58 9.84-3 13-6.66s2.77-8.15 2-12.61a96.24 96.24 0 0 0-4.5-17.12c-1.44-4-2.79-8.9-7.48-9.9-4.52-1-6.46 5.81-1.92 7 2.09.53 3.75 10.65 4.2 12.63.84 3.63 2.36 8.55 1.89 12.3-.56 4.43-8.61 5.71-12.2 6.89-4.15 1.37-8.32 2.66-12.55 3.75-3.6.93-10.24 3.67-14 2-4-1.78-7.66-7.16-10.69-10.26s-6-6.79-9.35-9.58c-2-1.67-3.9-2.74-6.52-1.93-2.23.68-2 4.51.58 4.26z"></path></g><path d="M577 511.44a172.46 172.46 0 0 0-39.17 9.37c-1.69.62-3.51 1.38-4.35 3a7.56 7.56 0 0 0-.59 3.47 190.14 190.14 0 0 0 2.42 31.72 7.39 7.39 0 0 0 1.25 3.54 7 7 0 0 0 3.9 2c18.16 4.76 37.76.52 54.49-8a8.35 8.35 0 0 0 3.37-2.56 7.92 7.92 0 0 0 1-3.71c.74-8.48-.78-17-2.29-25.36a22.75 22.75 0 0 0-2.31-7.56c-1.35-2.28-3.74-4.14-6.39-4.09" fill="#fbc155" class="fill-eab642"></path><path d="M577 509a208.69 208.69 0 0 0-23.3 3.81c-3.88.85-7.74 1.84-11.55 3-3.2.94-7 1.68-9.71 3.78-5.09 3.95-3.5 12.38-3.25 18 .35 7.72.61 16.27 2.57 23.78 1.76 6.73 8.92 7.7 14.88 8.52a74 74 0 0 0 21.84-.4 91.6 91.6 0 0 0 21.43-6.37c5.67-2.42 12.06-4.64 13-11.47 1.31-9.3-.73-19.27-2.56-28.38-1.33-6.66-4.49-12.83-12-13.26-3.69-.21-4.65 6-.89 6.57 7.15 1 7.2 14.61 7.84 20.09a70.2 70.2 0 0 1 .52 10.75c-.17 4.71-2 5.7-5.83 7.47-12.58 5.79-26.79 9-40.65 7.38-2.62-.31-8.43-.5-9.94-3-1.67-2.77-1.28-8.15-1.62-11.37q-.59-5.6-.85-11.23c-.13-2.87-1-7.25-.26-10 .82-3.14 6.14-4.12 8.92-5.11q5.19-1.85 10.49-3.36a159.16 159.16 0 0 1 21.52-4.42c2.66-.37 2.06-5-.64-4.72z" fill="#fbc155" class="fill-eab642"></path><path d="M591.34 516.74a211.2 211.2 0 0 0-23.34 3.81q-5.82 1.29-11.55 3c-3.19 1-7 1.69-9.7 3.78-5.09 4-3.51 12.38-3.25 18 .35 7.72.6 16.26 2.57 23.78 1.76 6.73 8.92 7.7 14.87 8.51a74.1 74.1 0 0 0 21.85-.39 91.67 91.67 0 0 0 21.42-6.37c5.67-2.42 12.06-4.65 13-11.47 1.31-9.31-.73-19.27-2.55-28.38-1.34-6.66-4.5-12.84-12-13.26-3.7-.21-4.65 6-.89 6.56 7.14 1 7.19 14.62 7.84 20.09a73 73 0 0 1 .52 10.76c-.17 4.71-2 5.7-5.83 7.47-12.59 5.79-26.79 9-40.66 7.37-2.62-.31-8.42-.49-9.94-3-1.66-2.77-1.27-8.15-1.61-11.36q-.6-5.61-.85-11.24c-.13-2.87-1-7.24-.27-10 .83-3.15 6.14-4.12 8.92-5.11q5.19-1.85 10.49-3.37a158.06 158.06 0 0 1 21.62-4.45c2.65-.38 2.06-5-.64-4.73z" fill="#1a1c3f" class="fill-1a1c3f"></path><path d="M194.93 38.39c-33.41 5.48-68.43 25.91-80.26 59.15-10.93 30.69.61 66.68 23.82 88.63 32.74 31 89.75 31.88 123.26 1.59 36.95-33.4 34.83-94.17 1.29-129.24a77.46 77.46 0 0 0-6.11-5.77 60.39 60.39 0 0 0-48-13.92" fill="#ffffff" class="fill-ffffff"></path><path d="M175.42 25.22C142 30.71 107 51.13 95.15 84.37c-10.92 30.69.62 66.68 23.85 88.63 32.74 31 89.75 31.88 123.26 1.59 36.95-33.4 34.82-94.16 1.29-129.24a77.46 77.46 0 0 0-6.11-5.77 60.39 60.39 0 0 0-48-13.92" fill="#fbc155" class="fill-eab642"></path><path d="M194.34 36.25c-36 5.34-72.9 26.71-84.52 63.06-11.72 36.69 6.73 79.41 38.42 99.79 29.91 19.23 70.95 20.07 101.65 2.17 31-18.06 46.1-53.8 41.73-88.81-5.17-41.41-38-82.86-83.44-76.4-3.17.45-2.45 6.07.76 5.64 38.39-5.07 66.82 27.67 74.28 62.45 6.67 31.12-3.19 65.64-29.32 85-25.86 19.18-63 21.81-91.86 8-31-14.84-51.34-50.16-46.84-84.6 5.2-39.87 43.51-64.94 80.32-72 2.83-.55 1.58-4.67-1.18-4.27z" fill="#1a1c3f" class="fill-1a1c3f"></path><path d="M577.39 64.68c-24.87-7.39-56-4.73-75.76 14.84-18.2 18.07-22.81 47.48-14.51 70.88 11.7 33 50.55 52.9 84.12 42.74 37-11.2 56.74-55 45.92-91.2A63 63 0 0 0 615 95.8a45.27 45.27 0 0 0-28.12-26.08" fill="#ffffff" class="fill-ffffff"></path><path d="M568.57 48.75c-24.87-7.39-56-4.73-75.75 14.84-18.2 18.07-22.82 47.48-14.52 70.89 11.71 33 50.55 52.9 84.12 42.74 37-11.21 56.74-55 45.93-91.2a63.27 63.27 0 0 0-2.19-6.15A45.23 45.23 0 0 0 578 53.8" fill="#f05d5e" class="fill-4747e2"></path><path d="M578 62.54c-28.11-9-63.28-5.59-83.16 18.47-19.13 23.15-21.22 58.93-5.1 84.24 15.25 23.95 44.47 37.82 72.65 33.85 27.63-3.9 49-25.45 57.25-51.47 9.54-30.17 1.35-69.92-32-80.68-3.53-1.14-5 4.37-1.53 5.54 27.24 9.18 34.75 41 28.75 66.41-5.51 23.34-22.24 44.42-46 50.84-24 6.5-50.48-3-66.56-21.53-17.51-20.12-19.77-51.46-6.53-74.44 16.12-28 51.7-34.54 81-27 2.76.71 3.88-3.4 1.17-4.27z" fill="#1a1c3f" class="fill-1a1c3f"></path><path d="M91.68 492.68c-6.63 18.52-5.9 42.24 8.1 58 12.94 14.53 35 19.24 53.08 13.92 25.48-7.49 42.16-36.09 35.85-61.93-7-28.51-39.31-45.25-67.16-38.56a45.49 45.49 0 0 0-4.75 1.41 34.3 34.3 0 0 0-20.91 20.21" fill="#ffffff" class="fill-ffffff"></path><path d="M79.25 498.69c-6.62 18.53-5.9 42.25 8.11 58 12.93 14.53 35 19.24 53.08 13.92 25.48-7.5 42.15-36.09 35.85-61.94-7-28.5-39.31-45.24-67.17-38.55a47.8 47.8 0 0 0-4.74 1.4 34.33 34.33 0 0 0-20.92 20.22z" fill="#5948df" class="fill-34c6a0"></path><path d="M89.54 492.09c-8.36 21.59-7.07 49.39 11.51 65.51 17.28 15 44.05 17.64 63.94 6.37 18.88-10.69 31-32.88 28.81-54.59s-17.7-38.78-37.65-46.18c-23-8.53-53.32-3.3-63 21.75-1.35 3.47 4.17 4.89 5.54 1.53 8.07-19.82 32.09-23.76 50.65-18.27 17.34 5.13 32.22 18.72 35.93 36.82s-5.07 38.1-19.94 48.78c-15.83 11.36-38.44 11.51-54.7.86-20.1-13.17-23.34-40-16.79-61.41.84-2.77-3.26-3.77-4.27-1.17zM110.91 144.3c-3.52-1.15-5.29-1.19-8.77.23a77 77 0 0 0-7.5 3.45 51.35 51.35 0 0 0-15.11 12.44c-10.42 12.59-1.59 27.7 13.23 30.39 27.9 5.07 58-1.77 84.63-9.8a512.55 512.55 0 0 0 74.31-28.57c24.19-11.63 48.23-24.07 68.81-41.54 10.69-9.08 23.34-29.79 6.84-40.23-13.63-8.62-31.19-3.55-44.26 3.39-4 2.14-5.27 7.74-3 11.56 2.54 4.34 7.35 4.84 11.56 3 4-1.71 8-1.69 12.23-1.16a51.5 51.5 0 0 1 6.53 1.12c1.08.27 2.13.6 3.21.91 1.71.67 2.09.78 1.13.33l-2.52-4.8c1.07.23-5.2 7-5.63 7.43-3.72 3.4-7.82 6.37-11.78 9.48-15.94 12.52-33.11 24-51.33 32.95a462.79 462.79 0 0 1-56.31 22.91C166 165 144.21 171.55 121.85 173.1a141.6 141.6 0 0 1-18.88.1 40.83 40.83 0 0 1-7.47-.87 16.07 16.07 0 0 0-2.39-.81c-.56 0-.88-1.36-.63.15s.48-.34 1.06-1c1-1.11 1.92-2.28 2.94-3.36 1.84-1.95 3.82-3.76 5.75-5.61a48.47 48.47 0 0 1 5.93-5 12.36 12.36 0 0 0 5.3-6.21c1.17-2.56.26-5.34-2.55-6.25z" fill="#1a1c3f" class="fill-1a1c3f"></path><g fill="#ffffff" class="fill-ffffff"><path d="M210.19 118.68c-1.43-7.48 8.38-8.87 13.36-10.29 2.55-.72 2.18-5.11-.65-4.8-8.11.89-19.2 6.11-16.52 16.14.67 2.49 4.29 1.43 3.81-1zM225.88 119.66v.62a1.49 1.49 0 0 0 .17.78 1.79 1.79 0 0 0 1.07 1.06 1.46 1.46 0 0 0 .77.18 2.12 2.12 0 0 0 1.43-.59 2 2 0 0 0 .59-1.43v-.62a1.54 1.54 0 0 0-.17-.76 1.56 1.56 0 0 0-.41-.64 1.48 1.48 0 0 0-.64-.4 1.42 1.42 0 0 0-.76-.17 2 2 0 0 0-1.4.57l-.3.4a2 2 0 0 0-.27 1zM242.33 97.74l-.52-.67a1.79 1.79 0 0 0-.65-.66 1.87 1.87 0 0 0-.92-.25 2 2 0 0 0-1.29.54 1.87 1.87 0 0 0-.53 1.28 1.74 1.74 0 0 0 .25.92 1.87 1.87 0 0 0 .65.66l.68.51.41.18a1.31 1.31 0 0 0 .68 0 .85.85 0 0 0 .43-.12 1.3 1.3 0 0 0 .54-.35 2 2 0 0 0 .44-.75 1.31 1.31 0 0 0 0-.68 1.34 1.34 0 0 0-.2-.64zM222.41 76.39a15.67 15.67 0 0 0-6.07 3.89 2.17 2.17 0 0 0 3.07 3.08 12 12 0 0 1 4.47-3.5c1.93-.9.56-4.21-1.47-3.47zM185.93 133.34a3.63 3.63 0 0 1 3.51-3.87c2.9.11 2.91-4.56 0-4.49-4.47.1-8.06 4.37-6.78 8.8.51 1.75 3.39 1.49 3.27-.44zM180.78 105.57c2.59 0 2.6-4 0-4s-2.6 4 0 4zM145.47 136.86c3 0 3-4.66 0-4.66s-3 4.66 0 4.66zM146.09 152.88l4.34-.58a2.28 2.28 0 1 0-.61-4.49l-4.32.65a2.24 2.24 0 0 0-1.62 2.47 2.22 2.22 0 0 0 2.21 1.95zM247.05 139.84c2.85 0 2.85-4.43 0-4.43s-2.85 4.43 0 4.43zM540 132.05a13.69 13.69 0 0 0-14.2 9.24c-1.1 3.08 4.06 4.57 4.94 1.36A9.15 9.15 0 0 1 540 136c2.59.1 2.46-3.67 0-3.95zM535.68 163.14c2.55 0 2.55-4 0-4s-2.54 4 0 4zM556.74 157.33a1.75 1.75 0 0 0 0-3.49 1.75 1.75 0 0 0 0 3.49zM542.5 151.68a1.67 1.67 0 0 0 0-3.33 1.67 1.67 0 0 0 0 3.33zM575.17 132.14c-5.25-1.87-11 1.41-12.65 6.56-1 3.24 4.34 4.72 5.09 1.4a5.29 5.29 0 0 1 6.45-3.92c2.64.68 3.63-3.14 1.11-4zM562.05 113.47v-1.24a2.27 2.27 0 0 0-.65-1.56 2.19 2.19 0 0 0-1.56-.65 2.24 2.24 0 0 0-2.21 2.21v1.24a2.27 2.27 0 0 0 .65 1.56 2.21 2.21 0 0 0 3.77-1.56zM587.71 86.08c-7.52-.07-13.81 7.7-11.68 15 .91 3.12 5.63 1.82 4.87-1.34-1.08-4.45 2.1-9.34 6.81-9.59 2.63-.14 2.67-4.08 0-4.11zM582.76 120.79c3 0 3-4.73 0-4.73s-3 4.73 0 4.73zM530 98a12.46 12.46 0 0 0-11.79 4.13 2.2 2.2 0 1 0 3.47 2.68 9.5 9.5 0 0 1 7.87-3.47c1.88.08 2.37-3 .45-3.34zM499.76 131.4c3.15 0 3.15-4.89 0-4.89s-3.15 4.89 0 4.89zM148.49 492.93c-7.81-2.29-15.93 4.83-16.18 12.6-.1 3.31 4.71 3.16 5.05 0 .58-5.51 5.38-8.79 10.64-8.95a1.87 1.87 0 0 0 .49-3.65zM158.48 515.37c3.1 0 3.1-4.81 0-4.81s-3.1 4.81 0 4.81zM142.33 526.64l-2.48-2.48a2.56 2.56 0 1 0-3.62 3.63l2.48 2.48a2.56 2.56 0 0 0 3.62-3.63zM116.21 513l-.62-2.48a2.41 2.41 0 1 0-4.64 1.28l.62 2.48a2.43 2.43 0 0 0 3 1.68 2.46 2.46 0 0 0 1.68-3zM121.39 477.43l2.48-1.86a2.86 2.86 0 0 0 1.2-1.55 2.64 2.64 0 0 0-.27-2c-.69-1.08-2.39-1.81-3.56-.94l-2.47 1.86a2.83 2.83 0 0 0-1.2 1.56 2.68 2.68 0 0 0 .26 2c.7 1.07 2.4 1.81 3.56.93zM767.49 275.24c11.47-10.6 19.68-27.54 15.61-43.76-3.75-15-17.55-26.4-32.21-29.3-20.67-4.09-42.91 9.89-48 30.38-5.58 22.6 11 46.27 33.07 51.8a39.09 39.09 0 0 0 3.85.76 27.27 27.27 0 0 0 22.19-6.53"></path></g><path d="M778.44 275.57c11.47-10.57 19.68-27.57 15.61-43.75-3.75-15-17.55-26.41-32.21-29.31-20.68-4.09-42.91 9.89-48 30.38-5.58 22.61 11 46.27 33.07 51.8a36.38 36.38 0 0 0 3.85.76 27.24 27.24 0 0 0 22.14-6.53z" fill="#1a1c3f" class="fill-1a1c3f"></path><path d="M769.05 276.8c14.47-12.52 23.88-33.05 16.11-51.84-6.84-16.56-24.49-28.06-42.4-27.69-17.26.34-33.94 11-41 26.85-7.34 16.3-3 35.07 8.65 48.18 13.35 15 37 22.66 53.63 8.32 2.82-2.44-1.25-6.4-4.06-4.07-13.2 10.93-31.5 4.45-42.3-6.62-9.9-10.16-14.87-25.21-10.17-39 4.51-13.2 17.36-23 31-25 14.27-2.05 29.36 5.49 36.89 17.67 10.24 16.56 3.1 36.91-9.45 50-2 2.08 1 5 3.12 3.13z" fill="#1a1c3f" class="fill-1a1c3f"></path><g fill="#ffffff" class="fill-ffffff"><path d="M727.32 254.41c4.67 4.83 13.58 2.81 16.72-2.8 1.61-2.87-2.53-5.2-4.35-2.55-2.36 3.42-6.46 4-10.12 2.43-1.84-.78-3.83 1.29-2.25 2.92zM728 238.82c3.09 0 3.1-4.81 0-4.81s-3.1 4.81 0 4.81zM743.82 232.8l.83 2.66a2.56 2.56 0 1 0 4.94-1.36l-.83-2.66a2.56 2.56 0 0 0-4.94 1.36zM757.24 251.73l-.48 2a2.41 2.41 0 0 0 4.64 1.27l.48-2a2.41 2.41 0 1 0-4.64-1.28zM740.4 274.59l-2.4.41a2.59 2.59 0 0 0-1.55 1.2 2.65 2.65 0 0 0-.27 2 2.68 2.68 0 0 0 3.2 1.82l2.43-.4a2.54 2.54 0 0 0 1.55-1.19 2.6 2.6 0 0 0 .26-2 2.66 2.66 0 0 0-3.19-1.82zM425.71 245.11c4.85 6.22 11.21 11.72 16.9 17.18 2.38 2.29 6-1.33 3.62-3.62-5.82-5.58-11.7-11.78-18.27-16.48-1.87-1.34-3.43 1.41-2.25 2.92zM454.75 204.35c4.22 11.89 9 23.74 15.3 34.69 1.38 2.39 4.91.28 3.68-2.15-5.55-11-11.13-21.95-15.69-33.44-.8-2-4-1.19-3.29.9zM496.62 199.57a102.8 102.8 0 0 0 3.83 24c.73 2.55 4.74 1.45 4-1.09a98.14 98.14 0 0 1-4.16-22.92c-.14-2.33-3.73-2.36-3.64 0zM530.7 208.86a29.41 29.41 0 0 1-1.31 11.22c-.8 2.52 3.24 3.64 4 1.09a32.38 32.38 0 0 0 1.07-12.31c-.25-2.34-3.9-2.42-3.72 0zM406.44 275.63a48.26 48.26 0 0 0 11.56 6.64c2.72 1.08 4-3.38 1.22-4.42a58.55 58.55 0 0 1-10.92-5.44c-2.08-1.32-3.71 1.8-1.88 3.22zM605.83 254.78a59.51 59.51 0 0 1 33.28 23.44 61.56 61.56 0 0 1 8.5 19c1 3.75 5.16 23.9-1.93 23.12l3 2.25a3.42 3.42 0 0 1 .7 3.7c-.12.83-.21 1.65-.27 2.48a42.82 42.82 0 0 0-.11 5.19 52.06 52.06 0 0 0 1.73 10.95c.86 3.24 5.78 1.88 5-1.38a44.63 44.63 0 0 1-.57-17.42c.54-3.34.85-6.78-2.15-9-5.45-4.12-11.26 1.27-10.26 7.15.24 1.42 1.7 2.11 3 2.25 9.37 1 10.26-10.24 10-16.92a62.36 62.36 0 0 0-7.49-26.95 63.84 63.84 0 0 0-41.39-31.16 1.74 1.74 0 0 0-.92 3.36zM654.53 360.76l.63-1.23a3 3 0 0 0 .27-2.1 2.72 2.72 0 0 0-5-.65l-.62 1.24a2.88 2.88 0 0 0-.27 2.09 2.71 2.71 0 0 0 3.34 1.9 2.68 2.68 0 0 0 1.62-1.25zM751.64 351.26c15.81-7.09 33.43-6.39 49 1 2.54 1.21 4.79-2.52 2.23-3.82-16.59-8.39-36.31-8.17-53-.32-2.13 1-.27 4.09 1.84 3.14zM763.59 323.11c10-4.41 20.65-4.48 31-1.14 2.54.83 3.55-3.07 1.09-4a44.91 44.91 0 0 0-34 1.82c-2.23 1-.29 4.26 1.91 3.28zM206.9 655.61c8-27.53 31.43-44.88 54.38-59.76 2.71-1.76.24-6.07-2.55-4.36-24.16 14.84-48.27 34.32-55.11 63.21a1.7 1.7 0 0 0 3.28.91zM187.84 628.43a74 74 0 0 1 27-33.39c2.34-1.59.14-5.42-2.23-3.82a74.16 74.16 0 0 0-28.55 36.18c-.88 2.36 2.81 3.3 3.73 1zM452.67 458c32.11 5.45 64.41 4.36 96.68 1.1 15-1.51 30.59-2.29 45.27-5.78 4.76-1.13 14.14-3 16.8-7.72a4.31 4.31 0 0 0-5.21-6.27 3.2 3.2 0 0 0-2.24 2.24l-.11.59a3.27 3.27 0 0 0 3.09 4.06c9.12.53 18.24-2.32 24.84-8.74 2.43-2.36-.87-7-3.72-4.82-6.35 4.79-13.05 7.55-21.12 7.15l3.09 4.06.1-.6-2.23 2.23q-1.18-4-3.35-2.38c-.51.28-1 .54-1.58.78a45 45 0 0 1-5 1.95 69.78 69.78 0 0 1-8.53 2.2c-6.27 1.26-12.65 1.9-19 2.67-12.82 1.54-25.65 3-38.51 4.11-26.07 2.19-52.35 3.23-78.33-.49-2.37-.34-3.44 3.25-1 3.66zM561.61 813.89c2.77 34.7 18.18 68.55 37.12 97.24.91 1.37 2.95 2.22 4.45 1.17a111.29 111.29 0 0 0 13.92-11.52c4.28-4.19 9.28-8.91 12-14.3 2.62-5.12 1.6-9.89-.25-15.08-2.53-7.11-5.16-14.2-7.76-21.28a4 4 0 0 0-4.8-2.73 42.09 42.09 0 0 0-21.52 11.11 4.05 4.05 0 0 0-.62 4.77c8.24 16.72 17 33.22 26.54 49.25 3 5 7.52 11 14.12 7.92 6.14-2.86 9.93-11.65 13-17.19 2.1-3.79 4.1-7.64 6.27-11.39 2-3.49 4.5-10 9.42-7.81 3.15 1.43 5.78 3.8 9 5.24a31 31 0 0 0 8.9 2.5c11.9 1.51 25.31-3.54 31.55-14.14 1.72-2.94-2.47-6.39-4.82-3.72-7.73 8.76-19.57 13.17-30.89 8.76-5.46-2.12-9.77-7.39-16-7.57-6.8-.19-10.28 6-13.3 11.14-3.67 6.22-6.8 12.74-10.56 18.91-1.13 1.84-4.31 8.82-7.15 7.26-2.43-1.33-4.21-6.66-5.54-8.95Q612.1 881.79 601 859.29l-.61 4.77a34.79 34.79 0 0 1 18-9.14l-4.8-2.73c2 5.55 4.08 11.1 6.16 16.63s5.2 10.6 1.72 16c-5.54 8.64-14.38 15.92-22.24 22.35l5.1.66a217.69 217.69 0 0 1-24.8-45.56c-6.38-15.93-10.26-32.26-14.13-48.91-.48-2.09-4-1.69-3.8.51zM685.16 919.52c12 4.63 27.22-2 33.93-12.44 1.46-2.26-2-5-3.78-2.92-8 9.49-17.59 12.48-29.7 12-2-.08-2.14 2.69-.45 3.34zM733 871.09c2.94 0 2.95-4.58 0-4.58s-3 4.58 0 4.58zM729.24 895.4c3.15 0 3.15-4.89 0-4.89s-3.15 4.89 0 4.89z"></path></g></svg>